<svg id="Ebene_1" data-name="Ebene 1" xmlns="http://www.w3.org/2000/svg" viewBox="0 0 841.89 331.654"><defs><style>.cls-1{fill:#004b93;}.cls-2{fill:#fff;}</style></defs><title>logo_claim_4c</title><path class="cls-1" d="M44.8,311.809c-8.594,0-13.473-5.24-13.473-15.074,0-17.035,7.5-37.279,24.249-37.279,8.446,0,13.324,5.314,13.324,15.146C68.9,291.565,61.474,311.809,44.8,311.809Zm14.272-36.988c0-5.246-1.094-7.721-4.589-7.721-8.665,0-13.324,17.549-13.324,29.418,0,5.17,1.093,7.645,4.659,7.645C54.483,304.163,59.072,286.69,59.072,274.821Z"/><path class="cls-1" d="M82.814,311.079c-1.384,6.845-4.08,14.2-13.981,14.2-3.351,0-6.481-.438-6.481-1.238a3.109,3.109,0,0,1,.144-.8l1.53-5.1c.147-.359.293-.508.512-.508a16.934,16.934,0,0,0,2.983.365c4.951,0,5.826-3.347,6.772-8.007l5.68-28.836H74.8c-.436,0-1.017-.074-1.017-.731a3.774,3.774,0,0,1,.144-.871l.873-4.082c.076-.65.219-.869,1.022-.869h5.388l.874-4.59c1.093-5.9,2.985-11.65,12.96-11.65,3.057,0,7.354.949,7.354,2.041a1.7,1.7,0,0,1-.146.582l-1.746,5.1c-.218.438-.437.506-.584.506-.728,0-2.183-.943-4.369-.943-3.785,0-4.3,2.838-4.95,5.824L89.95,274.6h8.3c.656,0,.874.363.874.652a3.839,3.839,0,0,1-.218.875l-1.312,4.223c-.219.654-.291.8-1.019.8H88.71Z"/><path class="cls-1" d="M108.446,311.079c-1.384,6.845-4.079,14.2-13.98,14.2-3.35,0-6.482-.438-6.482-1.238a3.032,3.032,0,0,1,.147-.8l1.528-5.1c.147-.359.291-.508.509-.508a17,17,0,0,0,2.986.365c4.954,0,5.826-3.347,6.772-8.007l5.679-28.836h-5.169c-.437,0-1.02-.074-1.02-.731a3.53,3.53,0,0,1,.147-.871l.873-4.082c.071-.65.219-.869,1.02-.869h5.388l.872-4.59c1.092-5.9,2.986-11.65,12.962-11.65,3.059,0,7.355.949,7.355,2.041a1.681,1.681,0,0,1-.147.582l-1.748,5.1c-.217.438-.435.506-.582.506-.727,0-2.183-.943-4.367-.943-3.788,0-4.3,2.838-4.953,5.824l-.655,3.133h8.3c.657,0,.875.363.875.652a3.839,3.839,0,0,1-.218.875l-1.312,4.223c-.218.654-.291.8-1.019.8h-7.864Z"/><path class="cls-1" d="M149.514,306.637a2.324,2.324,0,0,1,.219.656c0,.95-6.772,4.516-14.2,4.516-8.736,0-12.67-5.459-12.67-13.543,0-14.562,9.394-24.906,20.607-24.906,6.846,0,10.776,3.793,10.776,9.615,0,13.76-18.494,13.76-22.645,13.76,0,2.185-.582,7.791,6.262,7.791,4.295,0,8.155-2.91,9.248-2.91.363,0,.438.216.582.509Zm-16.893-16.453c3.132,0,12.889,0,12.889-6.7a3.309,3.309,0,0,0-3.351-3.573C135.315,279.914,133.276,287.491,132.621,290.184Z"/><path class="cls-1" d="M183.523,309.7c-.144.8-.29.873-1.019.873h-6.771c-.582,0-.947-.149-.947-.729,0-.219.073-.508.073-.8l4.8-20.752a18.165,18.165,0,0,0,.655-4.441c0-1.674-.655-2.842-2.184-2.842-6.7,0-9.1,9.032-10.266,14.274l-3.13,14.418c-.147.8-.293.873-1.021.873h-6.772c-.583,0-.946-.149-.946-.729,0-.219.075-.508.075-.8l4.947-21.918a23.9,23.9,0,0,0,.875-5.968c0-2.186-.655-3.2-.655-4.516,0-.51.511-.656.873-.8l5.828-2.259a1.735,1.735,0,0,1,.726-.221c.8,0,1.457,3.279,1.457,7.359,1.966-2.33,6.117-7.359,12.086-7.359,4.734,0,7.355,3.642,7.355,7.646a24.835,24.835,0,0,1-.728,5.684Z"/><path class="cls-1" d="M223.36,309.114c-.148.658-.219,1.457-.947,1.457h-3.86c-.437,0-.728-.149-.728-.367a3.1,3.1,0,0,1,.146-.87l6.262-29.49h-5.752c-.51,0-.584-.219-.584-.512a2.034,2.034,0,0,1,.074-.582l.51-2.328c.146-.511.365-.8.874-.8h9.685c1.018,0,1.163.07,1.163.582a16.26,16.26,0,0,1-.362,1.818Zm6.917-42.594a4.073,4.073,0,0,1-4.079-4.078,4.12,4.12,0,0,1,4.079-4.08,4.168,4.168,0,0,1,4.077,4.08A4.119,4.119,0,0,1,230.277,266.52Z"/><path class="cls-1" d="M275.932,285.522a13.485,13.485,0,0,0,.438-2.912c0-2.041-1.092-3.129-3.278-3.129-7.646,0-9.9,7.642-11.65,15.506l-3.276,14.855c-.147.512-.291.729-.875.729h-3.786c-.364,0-.582-.149-.582-.436a1.243,1.243,0,0,1,.074-.512l5.1-24.1a13.483,13.483,0,0,0,.437-2.912c0-2.041-1.093-3.129-3.28-3.129-7.645,0-10.482,9.683-11.5,14.488L240.4,309.842c-.144.512-.288.729-.872.729h-3.788c-.363,0-.581-.149-.581-.436a1.228,1.228,0,0,1,.075-.512l5.166-24.462a25.352,25.352,0,0,0,.512-4.155,22.755,22.755,0,0,0-.581-4.367c0-.291.362-.51.653-.582l2.476-1.092a4.459,4.459,0,0,1,1.019-.363c.8,0,1.312,1.82,1.312,3.637,0,1.461-.147,2.33-.147,3.279h.147c2.4-3.5,5.9-6.916,11.65-6.916,3.5,0,6.116,1.963,6.116,6.916h.144c2.549-3.5,6.046-6.916,11.58-6.916,3.786,0,6.625,1.963,6.625,5.822a23.891,23.891,0,0,1-.728,5.1L276,309.842c-.143.512-.29.729-.871.729h-3.788c-.364,0-.581-.149-.581-.436a1.243,1.243,0,0,1,.074-.512Z"/><path class="cls-1" d="M328.367,260.692c8.371,0,16.891.293,16.891,14.055a59.729,59.729,0,0,1-6.481,25.486c-4.151,7.861-10.994,10.338-19.658,10.338h-8.667c-.362,0-.582-.149-.582-.512l10.34-48.637c.146-.582.436-.73.874-.73Zm-7.428,45a13.526,13.526,0,0,0,10.776-5.02c4.732-5.466,7.572-19.009,7.572-26,0-8.519-4.661-9.1-9.61-9.1h-4.661l-8.446,40.119Z"/><path class="cls-1" d="M373.661,306.057c.074.143.146.217.146.361,0,.875-6.408,5.172-13.471,5.172-8.227,0-11.8-5.24-11.8-13.324,0-12.381,7.572-23.664,18.422-23.664,6.479,0,9.609,3.932,9.609,9.32,0,12.668-16.017,12.668-22.426,12.741,0,.656-.072,1.24-.072,1.822,0,5.166,2.039,8.008,6.771,8.008,6.481,0,9.392-3.493,10.414-3.493a.83.83,0,0,1,.653.432Zm-2.184-21.916c0-3.06-1.749-5.027-5.316-5.027-8.3,0-10.63,9.468-11.431,13.037C358.734,292.151,371.477,292.151,371.477,284.141Z"/><path class="cls-1" d="M385.969,285.161a25.526,25.526,0,0,0,.509-4.155,22.6,22.6,0,0,0-.581-4.367c0-.291.363-.51.655-.582l2.621-1.092a4.41,4.41,0,0,1,1.022-.363c.581,0,1.38,2.182,1.38,4.443,0,1.453-.219,2.618-.219,3.274h.147c2.695-3.785,6.7-7.717,13.178-7.717,3.789,0,6.628,1.963,6.628,5.822a23.828,23.828,0,0,1-.728,5.1l-5.168,24.32c-.148.512-.294.729-.876.729h-3.786c-.364,0-.584-.149-.584-.436a1.259,1.259,0,0,1,.073-.512l5.1-24.1a13.421,13.421,0,0,0,.437-2.912c0-2.041-1.093-3.129-3.276-3.129-7.862,0-12.159,9.683-13.178,14.488l-3.351,15.873c-.147.512-.291.729-.872.729h-3.788c-.365,0-.584-.149-.584-.436a1.243,1.243,0,0,1,.074-.512Z"/><path class="cls-1" d="M421.871,309.842c-.145.512-.291.729-.873.729H417.21c-.362,0-.582-.149-.582-.436a1.228,1.228,0,0,1,.075-.512l10.556-49.585c.073-.438.218-1.02.729-1.165l3.643-.873a4.572,4.572,0,0,1,.652-.144c.51,0,.584.217.51.58l-6.772,31.6.147.146,17.619-15.656c.147-.072.365-.293.583-.293.149,0,.439.221.585.293l2.474,2.037c.146.15.293.293.293.437a.525.525,0,0,1-.293.512l-16.092,13.469,10.923,17.476c.072.145.218.289.218.438a.82.82,0,0,1-.508.582l-3.205,1.967a1.182,1.182,0,0,1-.582.218.681.681,0,0,1-.511-.367L425.8,291.2Z"/><path class="cls-1" d="M472.188,306.057c.074.143.146.217.146.361,0,.875-6.406,5.172-13.469,5.172-8.228,0-11.8-5.24-11.8-13.324,0-12.381,7.575-23.664,18.422-23.664,6.482,0,9.612,3.932,9.612,9.32,0,12.668-16.017,12.668-22.426,12.741,0,.656-.074,1.24-.074,1.822,0,5.166,2.041,8.008,6.77,8.008,6.484,0,9.4-3.493,10.415-3.493a.832.832,0,0,1,.655.432ZM470,284.141c0-3.06-1.746-5.027-5.317-5.027-8.3,0-10.628,9.468-11.432,13.037C457.261,292.151,470,292.151,470,284.141Z"/><path class="cls-1" d="M484.5,285.161a25.526,25.526,0,0,0,.509-4.155,22.521,22.521,0,0,0-.581-4.367c0-.291.363-.51.655-.582l2.621-1.092a4.437,4.437,0,0,1,1.021-.363c.582,0,1.38,2.182,1.38,4.443,0,1.453-.217,2.618-.217,3.274h.145c2.7-3.785,6.7-7.717,13.179-7.717,3.788,0,6.628,1.963,6.628,5.822a23.766,23.766,0,0,1-.729,5.1l-5.169,24.32c-.146.512-.294.729-.874.729H499.28c-.366,0-.584-.149-.584-.436a1.259,1.259,0,0,1,.073-.512l5.1-24.1a13.481,13.481,0,0,0,.436-2.912c0-2.041-1.093-3.129-3.277-3.129-7.861,0-12.159,9.683-13.177,14.488L484.5,309.842c-.146.512-.291.729-.872.729h-3.789c-.364,0-.583-.149-.583-.436a1.243,1.243,0,0,1,.074-.512Z"/><rect class="cls-1" width="841.89" height="209.473"/><path class="cls-2" d="M449.654,114.308v-7.174h14.3V129.88h-4.131l-1.329-3.4a11.146,11.146,0,0,1-9.066,3.963,13.849,13.849,0,0,1-10.224-3.906c-3.439-3.549-3.723-7.97-3.723-14.462v-7.412c0-6.427.284-10.917,3.723-14.471,2.415-2.525,6.033-3.905,10.5-3.905,8.511,0,13.845,4.822,14.246,12.918h-9.417c-.227-3.15-1.9-4.814-4.829-4.814-4.591,0-4.817,2.918-4.817,8.661v10.571c0,5.685.226,8.668,4.817,8.668,3.4,0,4.829-2,4.829-6.366v-1.618ZM388.618,94.5h-2.581v11.023h2.581c5.63,0,8.151-.8,8.151-5.507s-2.521-5.516-8.151-5.516m9.769,16.656,9.18,18.2H397.3l-8.157-17.111h-3.1v17.111h-9.3V87.378H387.3c5.63,0,9.882.174,12.923,1.787,3.789,2,5.858,5.742,5.858,10.613,0,5.633-2.7,9.655-7.69,11.379M329.708,130.4c-10.172,0-15.051-4.828-15.051-14.652V87.378h9.3v26.246c0,6.084.925,8.668,5.75,8.668,4.874,0,5.741-2.636,5.741-8.668V87.378h9.3v28.365c0,9.882-4.825,14.652-15.039,14.652M268.665,110.8h-4.022v11.715h4.022c4.187,0,6.2-1.836,6.2-5.845s-2.016-5.87-6.2-5.87m-.346-16.934h-3.676v10.4h3.676c3.789,0,5.623-1.73,5.623-5.223,0-3.621-1.781-5.176-5.623-5.176m9.189,13.388c4.477,1.43,6.713,4.757,6.713,10.048,0,8.212-4.82,12.058-14.7,12.058H255.339V87.378h13.9c9.473,0,14.125,3.4,14.125,10.686,0,4.538-1.774,7.347-5.853,9.192M210.431,93.747c-2.873,0-4.648,1.611-4.648,3.853,0,2.127,1.666,3.681,5.049,5.168,4.252,1.838,7.987,3.043,10.51,5.053a12.043,12.043,0,0,1,4.422,9.708c0,7.644-5.736,12.915-14.471,12.915a16.9,16.9,0,0,1-15.164-8.492l7.241-5.117c2.413,3.969,4.772,5.8,8.157,5.8,3.217,0,5.282-1.889,5.282-4.412,0-2.3-1.494-4.024-4.647-5.346-4.138-1.719-7.758-2.934-10.4-4.987a11.462,11.462,0,0,1-4.424-9.417c0-7.412,5.221-12.184,13.61-12.184,6.083,0,10.74,2.52,13.724,7.408l-6.663,4.776c-2.242-3.172-4.711-4.725-7.582-4.725m-53.46,35.615-.06-41.984h9.307l.053,41.984ZM108.739,130.4c-10.17,0-15.049-4.828-15.049-14.652V87.378H103v26.246c0,6.084.918,8.668,5.742,8.668,4.876,0,5.74-2.636,5.74-8.668V87.378h9.3v28.365c0,9.882-4.825,14.652-15.041,14.652M53.263,103.917c0-6.09-2.347-8.439-8.439-8.439H42.641v25.789h2.183c6.026,0,8.439-2.415,8.439-8.506Zm4.02,23.254c-2.759,1.851-6.608,2.191-11.827,2.191H33.338V87.378H45.456c5.219,0,9.018.238,11.827,2.127,3.385,2.3,5.4,6.66,5.4,12.4v12.866c0,5.742-2.016,10.164-5.4,12.4"/><path class="cls-2" d="M307,171.278l-14.753-28.365.17,28.365h-8.091V129.3h8.952L306.72,154.8l-.172-25.506h8.095v41.98Zm-50.587-8.094v8.094H226.9V129.3h28.3v8.1H236.2v7.528h12.987v8.089H236.2v10.166Zm-72.184-27.509c-2.872,0-4.655,1.609-4.655,3.851,0,2.123,1.674,3.668,5.058,5.171,4.249,1.831,7.985,3.034,10.513,5.053a12,12,0,0,1,4.415,9.694c0,7.645-5.742,12.922-14.464,12.922a16.862,16.862,0,0,1-15.164-8.5l7.235-5.11c2.407,3.958,4.767,5.8,8.151,5.8,3.221,0,5.287-1.892,5.287-4.419,0-2.295-1.493-4.022-4.653-5.338-4.138-1.727-7.751-2.927-10.4-5a11.441,11.441,0,0,1-4.416-9.415c0-7.413,5.22-12.171,13.6-12.171,6.09,0,10.736,2.519,13.721,7.406l-6.657,4.765c-2.242-3.161-4.709-4.712-7.58-4.712m-54.037,0c-2.87,0-4.647,1.609-4.647,3.851,0,2.123,1.661,3.668,5.052,5.171,4.251,1.831,7.984,3.034,10.509,5.053a12.012,12.012,0,0,1,4.421,9.694c0,7.645-5.743,12.922-14.474,12.922a16.869,16.869,0,0,1-15.16-8.5l7.239-5.11c2.413,3.958,4.767,5.8,8.157,5.8,3.209,0,5.281-1.892,5.281-4.419,0-2.295-1.5-4.022-4.651-5.338-4.139-1.727-7.759-2.927-10.391-5a11.447,11.447,0,0,1-4.429-9.415c0-7.413,5.229-12.171,13.608-12.171,6.092,0,10.74,2.519,13.732,7.406l-6.662,4.765c-2.243-3.161-4.713-4.712-7.585-4.712M91.149,163.184v8.094H61.63V129.3H89.945v8.1H70.933v7.528h12.98v8.089H70.933v10.166Z"/><path class="cls-2" d="M306.057,36.111V61.177H299.18V36.111h-7.861V30.124h22.6v5.987Zm-26.585,13.55-3.314-14.019-3.353,14.019Zm.719-19.537,8.923,31.053h-6.666l-1.664-6.2h-9.34l-1.616,6.2h-6.672l8.925-31.053Zm-10.4-7.6h5.182v5.6h-5.182Zm7.518,0h5.222v5.6h-5.222ZM253.145,36.111V61.177h-6.886V36.111H238.4V30.124h22.592v5.987Zm-27.44,25.066-.044-31.053h6.877l.047,31.053ZM206.844,34.836c-2.123,0-3.439,1.192-3.439,2.849,0,1.566,1.234,2.718,3.744,3.816,3.133,1.353,5.9,2.256,7.766,3.738a8.894,8.894,0,0,1,3.27,7.18c0,5.653-4.244,9.558-10.7,9.558a12.5,12.5,0,0,1-11.22-6.29l5.353-3.777c1.788,2.933,3.532,4.286,6.033,4.286,2.381,0,3.915-1.4,3.915-3.261,0-1.7-1.1-2.985-3.445-3.952-3.058-1.276-5.738-2.166-7.684-3.7a8.482,8.482,0,0,1-3.273-6.968c0-5.478,3.868-9,10.063-9a11.2,11.2,0,0,1,10.153,5.478l-4.925,3.526c-1.663-2.34-3.484-3.481-5.61-3.481m-28.326.555H176.6v8.151h1.916c4.167,0,6.032-.592,6.032-4.07,0-3.5-1.865-4.081-6.032-4.081m7.222,12.316,6.795,13.47h-7.6L178.9,48.513h-2.3V61.177h-6.877V30.124h7.814c4.166,0,7.307.129,9.561,1.316,2.8,1.489,4.327,4.246,4.327,7.855,0,4.165-2,7.128-5.687,8.412m-22.9,7.477v5.993H141.018V30.124h20.933v5.987H147.9v5.563H157.5v5.989H147.9v7.521Zm-36.735,5.993h-7.262l-9.509-31.053h6.878l6.282,21.7,6.242-21.7h6.886Zm-29.858,0-.04-31.053h6.884l.039,31.053Zm-15.033,0L70.3,40.191l.125,20.986H64.443V30.124h6.621l9.944,18.859-.132-18.859H86.87V61.177Zm-36.652.756c-7.519,0-11.122-3.567-11.122-10.835V30.124h6.877V49.538c0,4.5.673,6.407,4.245,6.407,3.616,0,4.249-1.955,4.249-6.407V30.124H55.69V51.1c0,7.307-3.563,10.835-11.126,10.835"/></svg>