<?xml version="1.0" encoding="utf-8"?>
<!-- Generator: $$$/GeneralStr/196=Adobe Illustrator 27.6.0, SVG Export Plug-In . SVG Version: 6.00 Build 0)  -->
<svg version="1.1" id="RZ" xmlns="http://www.w3.org/2000/svg" xmlns:xlink="http://www.w3.org/1999/xlink" x="0px" y="0px"
	 viewBox="0 0 130.9762573 50" style="enable-background:new 0 0 130.9762573 50;" xml:space="preserve">
<path d="M31.6913738,39.1922684h-2.3617477V39.19384C33.4815102,45.695385,40.7633247,50,49.0520515,50
	c7.2530174,0,13.7349091-3.2976074,18.0198708-8.4762497C71.361496,46.7023926,77.8433838,50,85.0978775,50
	c8.2887268,0,15.5750656-4.307663,19.7269516-10.812252h-2.3647079c-3.8964386,5.3675499-10.2241211,8.8526802-17.3622437,8.8526802
	c-7.5583878,0-14.205101-3.9069633-18.0259552-9.8142853c-3.8147736,5.9073219-10.4629593,9.8142853-18.0198708,9.8142853
	C41.910881,48.0404282,35.5862465,44.5552979,31.6913738,39.1922684 M85.0298615,30.994257v-4.8292561h7.6975555v-2.8713436
	h-7.6975555v-4.2607822h8.6455994V16.161623H81.2181396v17.703886H94.074585V30.994257H85.0298615z M69.7073822,33.865509h3.7829361
	l4.9684143-17.7023163h-3.41259l-3.1917572,12.2743168l-2.7821045-12.2743168h-3.5909805L62.458889,28.4949112
	l-2.8244667-12.3317184h-4.2456474l4.9139748,17.7023163h3.7512741l2.7926254-11.352026L69.7073822,33.865509z M54.245739,33.865509
	l-4.5646744-6.7389011c1.1944389-0.4460125,3.8071098-2.113781,3.8071098-5.1241055
	c0-3.7799778-2.934742-5.8393097-6.0237885-5.8393097h-8.2009659V33.865509h3.8132019V18.8726692h3.2477722
	c1.7176018,0,3.2553406,1.1188583,3.2553406,3.2280235c0,2.1168251-1.8522453,3.2674313-3.9100075,3.2674313
	c-0.3931313,0-0.7303391,0.0091362-1.0221443-0.0438366l4.8156891,8.5412216H54.245739z M10.3722391,33.865509l6.5152025-17.703886
	h-3.5864573l-4.522316,13.0197945l-0.0151348-0.0362682L4.3560195,16.161623H0l6.6270518,17.703886H10.3722391z
	 M32.1343422,24.9825573c0,3.6212502-2.3087788,6.5545177-5.2360477,6.5545177
	c-2.9256992,0-5.2359524-2.9332676-5.2359524-6.5545177c0-3.6182022,2.3102531-6.5513783,5.2359524-6.5513783
	C29.8255634,18.431179,32.1343422,21.3643551,32.1343422,24.9825573 M26.8982944,15.5991488
	c-5.1210594,0-9.2699909,4.2018118-9.2699909,9.3834085c0,5.1831665,4.1489315,9.3834095,9.2699909,9.3834095
	c5.1211529,0,9.2715626-4.200243,9.2715626-9.3834095C36.169857,19.8009605,32.0194473,15.5991488,26.8982944,15.5991488
	 M102.4056778,10.7336264h2.3693161C100.6139679,4.2743473,93.3564301,0,85.0978775,0
	C77.8448563,0,71.361496,3.3021288,67.0734863,8.4822502C62.7869606,3.3021288,56.3035011,0,49.0504837,0
	c-8.2554131,0-15.5084343,4.2880054-19.6679783,10.7457151h2.3662701C35.6497383,5.4249525,41.9456749,1.962525,49.0504837,1.962525
	c7.5599556,0,14.206665,3.9085312,18.0230026,9.815855c3.8192902-5.9073243,10.4660034-9.815855,18.0243912-9.815855
	C92.2027817,1.962525,98.504715,5.414432,102.4056778,10.7336264 M112.5072479,33.865509l-4.564682-6.7389011
	c1.1974869-0.4460125,3.8086853-2.113781,3.8086853-5.1241055c0-3.7799778-2.9362259-5.8393097-6.0236969-5.8393097h-8.2026291
	V33.865509h3.8117218V18.8726692h3.250824c1.7161255,0,3.2537689,1.1188583,3.2537689,3.2280235
	c0,2.1168251-1.85215,3.2674313-3.9069595,3.2674313c-0.3946075,0-0.7332993,0.0091362-1.0251007-0.0438366l4.8156891,8.5412216
	H112.5072479z M115.0958252,33.865509h3.8102493V16.1631927h-3.8102493V33.865509z M130.9762573,33.8640327l-7.4072266-9.8203793
	l6.5771332-7.8804607h-4.5707703l-6.1764221,8.0876408l6.4954529,9.6146755h5.0818329V33.8640327z"/>
</svg>
